<mxfile host="app.diagrams.net" modified="2022-12-21T09:16:02.668Z" agent="5.0 (Windows NT 10.0; Win64; x64) AppleWebKit/537.36 (KHTML, like Gecko) Chrome/108.0.0.0 Safari/537.36" etag="Ebe2Kf1pMbU6_-tioMSx" version="20.7.2" type="github">
  <diagram id="kgpKYQtTHZ0yAKxKKP6v" name="Page-1">
    <mxGraphModel dx="976" dy="543" grid="1" gridSize="10" guides="1" tooltips="1" connect="1" arrows="1" fold="1" page="1" pageScale="1" pageWidth="850" pageHeight="1100" math="0" shadow="0">
      <root>
        <mxCell id="0" />
        <mxCell id="1" parent="0" />
        <mxCell id="abRauZB7TuJ-9SdHrUSJ-6" value="Client Browser Tab" style="rounded=0;verticalAlign=top;align=left;" vertex="1" parent="1">
          <mxGeometry y="280" width="650" height="560" as="geometry" />
        </mxCell>
        <mxCell id="abRauZB7TuJ-9SdHrUSJ-14" value="" style="endArrow=none;dashed=1;rounded=0;" edge="1" parent="1">
          <mxGeometry width="50" height="50" relative="1" as="geometry">
            <mxPoint x="40" y="150" as="sourcePoint" />
            <mxPoint x="690" y="150" as="targetPoint" />
          </mxGeometry>
        </mxCell>
        <mxCell id="abRauZB7TuJ-9SdHrUSJ-15" value="Main/UI Thread" style="rounded=0;verticalAlign=top;" vertex="1" parent="1">
          <mxGeometry x="20" y="310" width="390" height="500" as="geometry" />
        </mxCell>
        <mxCell id="abRauZB7TuJ-9SdHrUSJ-16" value="Web Worker Thread" style="rounded=0;verticalAlign=top;" vertex="1" parent="1">
          <mxGeometry x="485" y="320" width="130" height="190" as="geometry" />
        </mxCell>
        <mxCell id="abRauZB7TuJ-9SdHrUSJ-17" value="Modelica&#xa;Semantics" style="ellipse;" vertex="1" parent="1">
          <mxGeometry x="540" y="385" width="65" height="60" as="geometry" />
        </mxCell>
        <mxCell id="abRauZB7TuJ-9SdHrUSJ-12" value="Server Side" style="edgeStyle=orthogonalEdgeStyle;rounded=0;orthogonalLoop=1;jettySize=auto;exitX=0.5;exitY=1;exitDx=0;exitDy=0;entryX=0;entryY=0.25;entryDx=0;entryDy=0;" edge="1" parent="1" source="abRauZB7TuJ-9SdHrUSJ-3" target="abRauZB7TuJ-9SdHrUSJ-16">
          <mxGeometry x="-0.6522" y="208" relative="1" as="geometry">
            <mxPoint x="310" y="330" as="targetPoint" />
            <Array as="points">
              <mxPoint x="318" y="368" />
            </Array>
            <mxPoint as="offset" />
          </mxGeometry>
        </mxCell>
        <mxCell id="abRauZB7TuJ-9SdHrUSJ-19" value="Â Abstract Syntax Tree" style="edgeLabel;align=center;verticalAlign=middle;resizable=0;points=[];" vertex="1" connectable="0" parent="abRauZB7TuJ-9SdHrUSJ-12">
          <mxGeometry x="0.0852" y="2" relative="1" as="geometry">
            <mxPoint x="91" y="14" as="offset" />
          </mxGeometry>
        </mxCell>
        <mxCell id="abRauZB7TuJ-9SdHrUSJ-30" value="Diagram Data" style="endArrow=classic;rounded=0;entryX=1;entryY=0.5;entryDx=0;entryDy=0;exitX=0;exitY=0.75;exitDx=0;exitDy=0;entryPerimeter=0;" edge="1" parent="1" source="abRauZB7TuJ-9SdHrUSJ-16" target="abRauZB7TuJ-9SdHrUSJ-32">
          <mxGeometry width="50" height="50" relative="1" as="geometry">
            <mxPoint x="350" y="360" as="sourcePoint" />
            <mxPoint x="400" y="310" as="targetPoint" />
          </mxGeometry>
        </mxCell>
        <mxCell id="abRauZB7TuJ-9SdHrUSJ-31" value="Redux" style="shape=cylinder3;boundedLbl=1;backgroundOutline=1;size=15;strokeColor=#B3B3B3;fontColor=#CCCCCC;" vertex="1" parent="1">
          <mxGeometry x="30" y="350" width="60" height="50" as="geometry" />
        </mxCell>
        <mxCell id="abRauZB7TuJ-9SdHrUSJ-32" value="Model State&#xa;Classes" style="shape=cylinder3;boundedLbl=1;backgroundOutline=1;size=15;verticalAlign=top;fillColor=#f8cecc;strokeColor=#b85450;" vertex="1" parent="1">
          <mxGeometry x="240" y="430" width="75" height="90" as="geometry" />
        </mxCell>
        <mxCell id="abRauZB7TuJ-9SdHrUSJ-34" value="React UI&#xa;Component Tree" style="swimlane;startSize=30;" vertex="1" parent="1">
          <mxGeometry x="30" y="430" width="180" height="370" as="geometry" />
        </mxCell>
        <mxCell id="abRauZB7TuJ-9SdHrUSJ-61" value="React UI&#xa;Component" style="swimlane;startSize=30;" vertex="1" parent="abRauZB7TuJ-9SdHrUSJ-34">
          <mxGeometry x="10" y="40" width="160" height="80" as="geometry" />
        </mxCell>
        <mxCell id="abRauZB7TuJ-9SdHrUSJ-62" value="React UI&#xa;Component" style="swimlane;startSize=30;" vertex="1" parent="abRauZB7TuJ-9SdHrUSJ-34">
          <mxGeometry x="10" y="130" width="160" height="60" as="geometry" />
        </mxCell>
        <mxCell id="abRauZB7TuJ-9SdHrUSJ-41" value="Component Data, etc." style="endArrow=classic;rounded=0;entryX=1;entryY=1;entryDx=0;entryDy=-15;exitX=0.006;exitY=0.915;exitDx=0;exitDy=0;entryPerimeter=0;exitPerimeter=0;" edge="1" parent="1" source="abRauZB7TuJ-9SdHrUSJ-16" target="abRauZB7TuJ-9SdHrUSJ-32">
          <mxGeometry width="50" height="50" relative="1" as="geometry">
            <mxPoint x="480" y="479.5" as="sourcePoint" />
            <mxPoint x="340" y="479.5" as="targetPoint" />
          </mxGeometry>
        </mxCell>
        <mxCell id="abRauZB7TuJ-9SdHrUSJ-43" value="Command&#xa;Related&#xa;Classes" style="triangle;fontSize=10;align=left;" vertex="1" parent="1">
          <mxGeometry x="225" y="340" width="70" height="100" as="geometry" />
        </mxCell>
        <mxCell id="abRauZB7TuJ-9SdHrUSJ-44" value="" style="endArrow=classic;rounded=0;fontSize=10;exitX=1;exitY=0.5;exitDx=0;exitDy=0;entryX=-0.004;entryY=0.396;entryDx=0;entryDy=0;entryPerimeter=0;" edge="1" parent="1" source="abRauZB7TuJ-9SdHrUSJ-43" target="abRauZB7TuJ-9SdHrUSJ-16">
          <mxGeometry width="50" height="50" relative="1" as="geometry">
            <mxPoint x="320" y="450" as="sourcePoint" />
            <mxPoint x="480" y="400" as="targetPoint" />
          </mxGeometry>
        </mxCell>
        <mxCell id="abRauZB7TuJ-9SdHrUSJ-51" value="Optimistically&#xa;Update Data" style="edgeLabel;align=center;verticalAlign=middle;resizable=0;points=[];fontSize=10;" vertex="1" connectable="0" parent="abRauZB7TuJ-9SdHrUSJ-44">
          <mxGeometry x="-0.3988" y="2" relative="1" as="geometry">
            <mxPoint x="26" y="20" as="offset" />
          </mxGeometry>
        </mxCell>
        <mxCell id="abRauZB7TuJ-9SdHrUSJ-52" value="" style="endArrow=classic;rounded=0;fontSize=10;exitX=1;exitY=0.5;exitDx=0;exitDy=0;entryX=0.25;entryY=1;entryDx=0;entryDy=0;" edge="1" parent="1" source="abRauZB7TuJ-9SdHrUSJ-43" target="abRauZB7TuJ-9SdHrUSJ-3">
          <mxGeometry width="50" height="50" relative="1" as="geometry">
            <mxPoint x="350" y="360" as="sourcePoint" />
            <mxPoint x="400" y="310" as="targetPoint" />
          </mxGeometry>
        </mxCell>
        <mxCell id="abRauZB7TuJ-9SdHrUSJ-54" value="Update Models in&#xa;Server State" style="edgeLabel;align=center;verticalAlign=middle;resizable=0;points=[];fontSize=10;" vertex="1" connectable="0" parent="abRauZB7TuJ-9SdHrUSJ-52">
          <mxGeometry x="0.1959" y="2" relative="1" as="geometry">
            <mxPoint x="-10" y="-34" as="offset" />
          </mxGeometry>
        </mxCell>
        <mxCell id="abRauZB7TuJ-9SdHrUSJ-53" value="" style="group" vertex="1" connectable="0" parent="1">
          <mxGeometry x="250" y="20" width="235" height="90" as="geometry" />
        </mxCell>
        <mxCell id="abRauZB7TuJ-9SdHrUSJ-3" value="Editing Server" style="rounded=0;verticalAlign=top;" vertex="1" parent="abRauZB7TuJ-9SdHrUSJ-53">
          <mxGeometry width="135" height="80" as="geometry" />
        </mxCell>
        <mxCell id="abRauZB7TuJ-9SdHrUSJ-11" value="OCT SDK" style="ellipse;" vertex="1" parent="abRauZB7TuJ-9SdHrUSJ-53">
          <mxGeometry x="75" y="30" width="55" height="50" as="geometry" />
        </mxCell>
        <mxCell id="abRauZB7TuJ-9SdHrUSJ-39" value="File System" style="shape=cylinder3;boundedLbl=1;backgroundOutline=1;size=15;" vertex="1" parent="abRauZB7TuJ-9SdHrUSJ-53">
          <mxGeometry x="150" y="40" width="65" height="60" as="geometry" />
        </mxCell>
        <mxCell id="abRauZB7TuJ-9SdHrUSJ-83" value="" style="endArrow=classic;startArrow=classic;rounded=0;fontSize=10;exitX=1;exitY=1;exitDx=0;exitDy=0;" edge="1" parent="abRauZB7TuJ-9SdHrUSJ-53" source="abRauZB7TuJ-9SdHrUSJ-11" target="abRauZB7TuJ-9SdHrUSJ-39">
          <mxGeometry width="50" height="50" relative="1" as="geometry">
            <mxPoint x="110" y="240" as="sourcePoint" />
            <mxPoint x="160" y="190" as="targetPoint" />
          </mxGeometry>
        </mxCell>
        <mxCell id="abRauZB7TuJ-9SdHrUSJ-68" value="" style="endArrow=classic;startArrow=classic;rounded=0;fontSize=10;entryX=0.5;entryY=1;entryDx=0;entryDy=0;entryPerimeter=0;strokeColor=#B3B3B3;" edge="1" parent="1" source="abRauZB7TuJ-9SdHrUSJ-34" target="abRauZB7TuJ-9SdHrUSJ-31">
          <mxGeometry width="50" height="50" relative="1" as="geometry">
            <mxPoint x="350" y="540" as="sourcePoint" />
            <mxPoint x="400" y="490" as="targetPoint" />
          </mxGeometry>
        </mxCell>
        <mxCell id="abRauZB7TuJ-9SdHrUSJ-70" value="" style="endArrow=classic;rounded=0;fontSize=10;exitX=0;exitY=0;exitDx=0;exitDy=60;exitPerimeter=0;entryX=1;entryY=0.75;entryDx=0;entryDy=0;fillColor=#f8cecc;strokeColor=#b85450;" edge="1" parent="1" source="abRauZB7TuJ-9SdHrUSJ-32" target="abRauZB7TuJ-9SdHrUSJ-61">
          <mxGeometry width="50" height="50" relative="1" as="geometry">
            <mxPoint x="350" y="540" as="sourcePoint" />
            <mxPoint x="400" y="490" as="targetPoint" />
          </mxGeometry>
        </mxCell>
        <mxCell id="abRauZB7TuJ-9SdHrUSJ-71" value="Events" style="shape=hexagon;perimeter=hexagonPerimeter2;fixedSize=1;fontSize=10;fillColor=#f8cecc;strokeColor=#b85450;" vertex="1" parent="1">
          <mxGeometry x="230" y="560" width="85" height="30" as="geometry" />
        </mxCell>
        <mxCell id="abRauZB7TuJ-9SdHrUSJ-72" value="" style="endArrow=classic;rounded=0;fontSize=10;exitX=0.5;exitY=1;exitDx=0;exitDy=0;exitPerimeter=0;fillColor=#f8cecc;strokeColor=#b85450;" edge="1" parent="1" source="abRauZB7TuJ-9SdHrUSJ-32" target="abRauZB7TuJ-9SdHrUSJ-71">
          <mxGeometry width="50" height="50" relative="1" as="geometry">
            <mxPoint x="350" y="540" as="sourcePoint" />
            <mxPoint x="400" y="490" as="targetPoint" />
          </mxGeometry>
        </mxCell>
        <mxCell id="abRauZB7TuJ-9SdHrUSJ-73" value="" style="endArrow=classic;startArrow=classic;rounded=0;fontSize=10;entryX=0;entryY=0.25;entryDx=0;entryDy=0;fillColor=#f8cecc;strokeColor=#b85450;" edge="1" parent="1" target="abRauZB7TuJ-9SdHrUSJ-71">
          <mxGeometry width="50" height="50" relative="1" as="geometry">
            <mxPoint x="190" y="530" as="sourcePoint" />
            <mxPoint x="400" y="490" as="targetPoint" />
          </mxGeometry>
        </mxCell>
        <mxCell id="abRauZB7TuJ-9SdHrUSJ-76" value="Dispatch events&#xa;related to model state updates" style="edgeLabel;align=center;verticalAlign=middle;resizable=0;points=[];fontSize=10;" vertex="1" connectable="0" parent="abRauZB7TuJ-9SdHrUSJ-73">
          <mxGeometry x="0.421" y="3" relative="1" as="geometry">
            <mxPoint x="84" y="-15" as="offset" />
          </mxGeometry>
        </mxCell>
        <mxCell id="abRauZB7TuJ-9SdHrUSJ-75" value="" style="endArrow=classic;startArrow=classic;rounded=0;fontSize=10;exitX=1;exitY=0.75;exitDx=0;exitDy=0;fillColor=#f8cecc;strokeColor=#b85450;" edge="1" parent="1" source="abRauZB7TuJ-9SdHrUSJ-62">
          <mxGeometry width="50" height="50" relative="1" as="geometry">
            <mxPoint x="200" y="540" as="sourcePoint" />
            <mxPoint x="248" y="590" as="targetPoint" />
          </mxGeometry>
        </mxCell>
        <mxCell id="abRauZB7TuJ-9SdHrUSJ-77" value="Dispatch &amp; Respond&#xa;to events" style="edgeLabel;align=center;verticalAlign=middle;resizable=0;points=[];fontSize=10;" vertex="1" connectable="0" parent="1">
          <mxGeometry x="259.9981742882059" y="625.0004176798742" as="geometry" />
        </mxCell>
        <mxCell id="abRauZB7TuJ-9SdHrUSJ-82" value="" style="curved=1;endArrow=classic;rounded=0;fontSize=10;entryX=1;entryY=0;entryDx=0;entryDy=30;entryPerimeter=0;exitX=0;exitY=0.75;exitDx=0;exitDy=0;strokeColor=#B3B3B3;" edge="1" parent="1" source="abRauZB7TuJ-9SdHrUSJ-3" target="abRauZB7TuJ-9SdHrUSJ-31">
          <mxGeometry width="50" height="50" relative="1" as="geometry">
            <mxPoint x="230" y="110" as="sourcePoint" />
            <mxPoint x="190" y="370" as="targetPoint" />
            <Array as="points">
              <mxPoint x="110" y="310" />
              <mxPoint x="140" y="470" />
            </Array>
          </mxGeometry>
        </mxCell>
        <mxCell id="abRauZB7TuJ-9SdHrUSJ-88" value="Experiment Definitions,&#xa;Simulation Results,&#xa;Favorites, etc." style="edgeLabel;align=center;verticalAlign=middle;resizable=0;points=[];fontSize=10;fontColor=#CCCCCC;" vertex="1" connectable="0" parent="abRauZB7TuJ-9SdHrUSJ-82">
          <mxGeometry x="-0.3159" y="9" relative="1" as="geometry">
            <mxPoint as="offset" />
          </mxGeometry>
        </mxCell>
        <mxCell id="abRauZB7TuJ-9SdHrUSJ-84" value="" style="endArrow=classic;rounded=0;fontSize=10;exitX=0.145;exitY=1;exitDx=0;exitDy=-4.35;exitPerimeter=0;entryX=1;entryY=0.5;entryDx=0;entryDy=0;fillColor=#f8cecc;strokeColor=#b85450;" edge="1" parent="1" source="abRauZB7TuJ-9SdHrUSJ-32" target="abRauZB7TuJ-9SdHrUSJ-62">
          <mxGeometry width="50" height="50" relative="1" as="geometry">
            <mxPoint x="250" y="500" as="sourcePoint" />
            <mxPoint x="210" y="525" as="targetPoint" />
          </mxGeometry>
        </mxCell>
        <mxCell id="abRauZB7TuJ-9SdHrUSJ-87" value="" style="endArrow=classic;startArrow=classic;rounded=0;fontSize=10;exitX=0.5;exitY=0;exitDx=0;exitDy=0;exitPerimeter=0;" edge="1" parent="1" source="abRauZB7TuJ-9SdHrUSJ-32" target="abRauZB7TuJ-9SdHrUSJ-43">
          <mxGeometry width="50" height="50" relative="1" as="geometry">
            <mxPoint x="120" y="500" as="sourcePoint" />
            <mxPoint x="170" y="450" as="targetPoint" />
          </mxGeometry>
        </mxCell>
        <mxCell id="abRauZB7TuJ-9SdHrUSJ-90" value="React UI&#xa;Component" style="swimlane;startSize=30;" vertex="1" parent="1">
          <mxGeometry x="50" y="510" width="100" height="40" as="geometry" />
        </mxCell>
        <mxCell id="abRauZB7TuJ-9SdHrUSJ-98" value="Controller" style="rounded=0;strokeColor=#b85450;fontSize=10;fillColor=#f8cecc;" vertex="1" parent="1">
          <mxGeometry x="310" y="595" width="95" height="30" as="geometry" />
        </mxCell>
        <mxCell id="abRauZB7TuJ-9SdHrUSJ-99" value="Views" style="rounded=0;strokeColor=#B3B3B3;fontSize=10;fontColor=#CCCCCC;verticalAlign=top;" vertex="1" parent="1">
          <mxGeometry x="217.5" y="680" width="120" height="110" as="geometry" />
        </mxCell>
        <mxCell id="abRauZB7TuJ-9SdHrUSJ-100" value="Component View" style="rounded=0;strokeColor=#B3B3B3;fontSize=10;fontColor=#CCCCCC;" vertex="1" parent="1">
          <mxGeometry x="240" y="700" width="80" height="30" as="geometry" />
        </mxCell>
        <mxCell id="abRauZB7TuJ-9SdHrUSJ-101" value="Connection View" style="rounded=0;strokeColor=#B3B3B3;fontSize=10;fontColor=#CCCCCC;" vertex="1" parent="1">
          <mxGeometry x="240" y="740" width="80" height="20" as="geometry" />
        </mxCell>
        <mxCell id="abRauZB7TuJ-9SdHrUSJ-102" value="..." style="text;strokeColor=none;fillColor=none;align=center;verticalAlign=middle;rounded=0;fontSize=10;" vertex="1" parent="1">
          <mxGeometry x="250" y="760" width="60" height="30" as="geometry" />
        </mxCell>
        <mxCell id="abRauZB7TuJ-9SdHrUSJ-103" value="" style="endArrow=classic;startArrow=classic;rounded=0;strokeColor=#B3B3B3;fontSize=10;fontColor=#CCCCCC;entryX=0;entryY=0.5;entryDx=0;entryDy=0;" edge="1" parent="1" source="abRauZB7TuJ-9SdHrUSJ-111" target="abRauZB7TuJ-9SdHrUSJ-99">
          <mxGeometry width="50" height="50" relative="1" as="geometry">
            <mxPoint x="200" y="720" as="sourcePoint" />
            <mxPoint x="200" y="610" as="targetPoint" />
          </mxGeometry>
        </mxCell>
        <mxCell id="abRauZB7TuJ-9SdHrUSJ-104" value="..." style="text;strokeColor=none;fillColor=none;align=center;verticalAlign=middle;rounded=0;fontSize=30;" vertex="1" parent="1">
          <mxGeometry x="70" y="610" width="60" height="30" as="geometry" />
        </mxCell>
        <mxCell id="abRauZB7TuJ-9SdHrUSJ-105" value="..." style="text;strokeColor=none;fillColor=none;align=center;verticalAlign=middle;rounded=0;fontSize=30;" vertex="1" parent="1">
          <mxGeometry x="50" y="760" width="60" height="30" as="geometry" />
        </mxCell>
        <mxCell id="abRauZB7TuJ-9SdHrUSJ-107" value="" style="endArrow=classic;startArrow=classic;rounded=0;fontSize=10;fillColor=#f8cecc;strokeColor=#b85450;entryX=0.625;entryY=1;entryDx=0;entryDy=0;" edge="1" parent="1" source="abRauZB7TuJ-9SdHrUSJ-99" target="abRauZB7TuJ-9SdHrUSJ-71">
          <mxGeometry width="50" height="50" relative="1" as="geometry">
            <mxPoint x="210" y="615" as="sourcePoint" />
            <mxPoint x="258" y="600" as="targetPoint" />
          </mxGeometry>
        </mxCell>
        <mxCell id="abRauZB7TuJ-9SdHrUSJ-108" value="" style="endArrow=classic;startArrow=classic;rounded=0;fontSize=10;fillColor=#f8cecc;strokeColor=#b85450;exitX=0.842;exitY=0;exitDx=0;exitDy=0;exitPerimeter=0;" edge="1" parent="1" source="abRauZB7TuJ-9SdHrUSJ-98" target="abRauZB7TuJ-9SdHrUSJ-32">
          <mxGeometry width="50" height="50" relative="1" as="geometry">
            <mxPoint x="380.60000000000025" y="580.0000000000002" as="sourcePoint" />
            <mxPoint x="350.0047619047622" y="481.07142857142867" as="targetPoint" />
          </mxGeometry>
        </mxCell>
        <mxCell id="abRauZB7TuJ-9SdHrUSJ-109" value="" style="endArrow=classic;startArrow=classic;rounded=0;strokeColor=#b85450;fontSize=30;fontColor=#CCCCCC;entryX=1;entryY=0.75;entryDx=0;entryDy=0;exitX=0.5;exitY=0;exitDx=0;exitDy=0;fillColor=#f8cecc;" edge="1" parent="1" source="abRauZB7TuJ-9SdHrUSJ-98" target="abRauZB7TuJ-9SdHrUSJ-71">
          <mxGeometry width="50" height="50" relative="1" as="geometry">
            <mxPoint x="300" y="570" as="sourcePoint" />
            <mxPoint x="350" y="520" as="targetPoint" />
          </mxGeometry>
        </mxCell>
        <mxCell id="abRauZB7TuJ-9SdHrUSJ-111" value="Three JS&#xa;Canvas" style="aspect=fixed;strokeColor=#B3B3B3;fontSize=30;fontColor=#CCCCCC;" vertex="1" parent="1">
          <mxGeometry x="70" y="640" width="125" height="125" as="geometry" />
        </mxCell>
      </root>
    </mxGraphModel>
  </diagram>
</mxfile>
